<svg viewBox="0 0 500 500" xmlns="http://www.w3.org/2000/svg" style="fill:#f8e08d"><rect x="232.518" y="4.523" width="35.071" height="86.974"></rect><rect x="379.984" y="120.117" width="86.974" height="35.071" transform="matrix(0.707107, -0.707107, 0.707107, 0.707107, -3.857763, 309.098053)"></rect><rect x="408.57" y="232.477" width="86.974" height="35.071"></rect><rect x="405.937" y="379.984" width="35.071" height="86.974" transform="matrix(0.707107, -0.707107, 0.707107, 0.707107, -205.861313, 392.915558)"></rect><rect x="232.518" y="408.529" width="35.071" height="86.974"></rect><rect x="94.164" y="405.937" width="86.974" height="35.071" transform="matrix(0.707107, -0.707107, 0.707107, 0.707107, -289.503815, 190.911697)"></rect><rect x="4.564" y="232.477" width="86.974" height="35.071"></rect><rect x="120.117" y="94.164" width="35.071" height="86.974" transform="matrix(0.707107, -0.707107, 0.707107, 0.707107, -87.499725, 107.094162)"></rect><path d="M 250.055 144.802 C 169.06 144.802 118.435 232.477 158.942 302.618 C 199.429 372.757 300.679 372.757 341.167 302.618 C 350.405 286.625 355.264 268.474 355.264 250.013 C 355.264 191.903 308.164 144.802 250.055 144.802 Z"></path>
  <rect width="321.84" height="321.84" style="fill: none;" x="80.052" y="58.022"></rect>
</svg>