<svg viewBox="0 0 500 500" xmlns="http://www.w3.org/2000/svg" style="fill:#fff"><path d="M 328.171 403.138 L 65.361 403.138 C 48.284 403.138 34.441 389.295 34.441 372.219 L 34.441 124.867 C 34.441 107.792 48.284 93.948 65.361 93.948 L 328.171 93.948 C 345.247 93.948 359.091 107.792 359.091 124.867 L 359.091 187.632 L 442.881 127.805 C 452.576 120.901 466.106 127.084 467.237 138.928 C 467.282 139.394 467.307 139.859 467.308 140.327 L 467.308 356.759 C 467.252 368.661 454.336 376.039 444.058 370.041 C 443.655 369.805 443.262 369.553 442.881 369.282 L 359.091 309.453 L 359.091 372.219 C 359.091 389.295 345.247 403.138 328.171 403.138 Z"></path><rect style="fill: none;" width="494.704" height="494.704" x="3.522" y="1.191"></rect></svg>