<svg width="210" height="85" viewBox="0 0 210 85" fill="none" xmlns="http://www.w3.org/2000/svg">
<path d="M72.3523 79.1505C38.4892 66.6472 25.3523 57.3171 13.3523 47.6504C9.85228 45.1504 -7.16353 33.738 11.8444 30.4442C30.8523 27.1504 70.8523 -4.34955 110.852 3.15044C150.852 10.6504 197.852 37.1504 201.852 39.1504C205.852 41.1504 210.666 45.1427 205.352 46.1504C176.352 51.6504 174.852 52.1504 157.852 61.1504C140.852 70.1504 104.852 91.1505 72.3523 79.1505Z" fill="#4E3399"/>
<path d="M72.3523 79.1505C38.4892 66.6472 25.3523 57.3171 13.3523 47.6504C9.85228 45.1504 -7.16353 33.738 11.8444 30.4442C30.8523 27.1504 70.8523 -4.34955 110.852 3.15044C150.852 10.6504 197.852 37.1504 201.852 39.1504C205.852 41.1504 210.666 45.1427 205.352 46.1504C176.352 51.6504 174.852 52.1504 157.852 61.1504C140.852 70.1504 104.852 91.1505 72.3523 79.1505Z" fill="#4E3399" stroke="#3A2673" stroke-width="4"/>
<line x1="67" y1="8" x2="67" y2="35" stroke="#3A2673" stroke-width="4"/>
<path d="M92.5 80.5C63.2888 79.6148 20.5 53 6.5 38.5C36.8154 54.7516 81.5 66.5 125 56C168.5 45.5 203.5 42.5 203.5 42.5C203.5 42.5 205.197 43.5834 205.5 44C200 45 180.2 49.1 173 51.5C164 54.5 125.5 81.5 92.5 80.5Z" fill="#452C8C"/>
<path d="M112 19V50.5" stroke="#3A2673" stroke-width="4"/>
<path d="M47 51V70" stroke="#3A2673" stroke-width="4"/>
<path d="M148 35V66.5" stroke="#3A2673" stroke-width="4"/>
<path d="M88 47V83" stroke="#3A2673" stroke-width="4"/>
</svg>
