<svg width="210" height="85" viewBox="0 0 210 85" fill="none" xmlns="http://www.w3.org/2000/svg">
<path d="M72.3523 79.1505C38.4892 66.6472 25.3523 57.3171 13.3523 47.6504C9.85228 45.1504 -7.16353 33.738 11.8444 30.4442C30.8523 27.1504 70.8523 -4.34955 110.852 3.15044C150.852 10.6504 197.852 37.1504 201.852 39.1504C205.852 41.1504 210.666 45.1427 205.352 46.1504C176.352 51.6504 174.852 52.1504 157.852 61.1504C140.852 70.1504 104.852 91.1505 72.3523 79.1505Z" fill="#6D53DC"/>
<path d="M72.3523 79.1505C38.4892 66.6472 25.3523 57.3171 13.3523 47.6504C9.85228 45.1504 -7.16353 33.738 11.8444 30.4442C30.8523 27.1504 70.8523 -4.34955 110.852 3.15044C150.852 10.6504 197.852 37.1504 201.852 39.1504C205.852 41.1504 210.666 45.1427 205.352 46.1504C176.352 51.6504 174.852 52.1504 157.852 61.1504C140.852 70.1504 104.852 91.1505 72.3523 79.1505Z" fill="#6D53DC" stroke="#503DA6" stroke-width="4"/>
<line x1="67" y1="8" x2="67" y2="35" stroke="#503DA6" stroke-width="4"/>
<path d="M92.4322 80.9723C63.0741 80.0666 20.0704 53.3357 6 38.5C36.4677 55.1278 81.3769 66.6482 125.095 55.9051C168.814 45.162 203 42 203 42C203 42 205.195 43.5738 205.5 44C199.972 45.0231 180.573 48.8454 173.337 51.3009C164.291 54.3704 125.598 81.9954 92.4322 80.9723Z" fill="#5F48CA"/>
<path d="M112 19V50.5" stroke="#503DA6" stroke-width="4"/>
<path d="M47 51V70" stroke="#503DA6" stroke-width="4"/>
<path d="M148 35V66.5" stroke="#503DA6" stroke-width="4"/>
<path d="M88 47V83" stroke="#503DA6" stroke-width="4"/>
</svg>
